<?xml version="1.0" encoding="UTF-8" standalone="no"?>
<!DOCTYPE svg PUBLIC "-//W3C//DTD SVG 1.1//EN" "http://www.w3.org/Graphics/SVG/1.1/DTD/svg11.dtd">
<svg version="1.1" xmlns="http://www.w3.org/2000/svg" xmlns:xlink="http://www.w3.org/1999/xlink" preserveAspectRatio="xMidYMid meet" viewBox="0 0 640 640" width="640" height="640"><defs><path d="M129.03 563.65C67.33 516 25.22 442.05 14.54 362.67C9.82 327.63 9.82 315.04 14.54 280C33.09 142.13 142.43 32.58 279.44 14.62C317.01 9.7 325.65 9.7 363.23 14.62C419.15 21.95 465.44 41.77 513.63 79C561.09 115.67 596.24 166.37 616.08 226.77C624.45 252.25 631.89 296.8 631.89 321.33C631.89 328.67 630.21 347.25 628.13 362.67C609.57 500.53 500.24 610.08 363.23 628.05C327.6 632.72 311.73 632.69 276.48 627.89C223.42 620.64 176.14 600.05 129.03 563.65ZM303.87 591.89C299.39 578.03 285.44 534.88 272.88 496C260.34 457.12 249.23 424.43 248.2 423.31C247.18 422.19 199.9 421.57 143.13 421.97C136.25 422.02 101.85 422.25 39.93 422.67C48.68 440.27 53.54 450.04 54.51 452C76.03 495.28 99.93 524.72 139.45 556.64C173.92 584.45 231.03 609.12 276.4 615.73C292.45 618.08 312 619.25 312 617.89C312 617.47 308.35 605.76 303.87 591.89ZM503.2 556.64C542.75 524.72 566.64 495.28 588.16 452C589.13 450.04 593.99 440.27 602.75 422.67C540.83 422.25 506.43 422.02 499.55 421.97C442.77 421.57 395.49 422.19 394.45 423.31C393.44 424.43 382.32 457.12 369.79 496C357.23 534.88 343.28 578.03 338.8 591.89C334.32 605.76 330.67 617.6 330.67 618.21C330.67 620.93 374.48 614.83 397.33 608.91C431.79 600 477.39 577.49 503.2 556.64ZM369.63 457.36C374.61 442.72 378.67 428.64 378.67 426.03C378.67 421.68 374.35 421.33 321.33 421.33C270.45 421.33 264 421.81 264 425.63C264 427.97 271.33 452.27 280.29 479.63C289.25 506.96 301.31 543.73 307.04 561.33C312.8 578.93 318.11 595.04 318.85 597.12C321.28 604.05 324.43 596.48 342.59 540C352.51 509.2 364.67 472.03 369.63 457.36ZM225.16 349.23C212.88 311.79 206.72 296.48 204.5 297.84C195.88 303.17 56 405.81 56 406.83C56 407.47 98 408 149.33 408C211.29 408 242.67 407.09 242.67 405.28C242.67 403.76 234.79 378.53 225.16 349.23ZM423.6 286.96C360.43 240.78 323.89 215.11 321.33 215.11C319.52 215.11 296 231.13 269.04 250.7C242.06 270.27 219.6 286.56 219.1 286.93C218.01 287.71 252.97 396.8 256.42 403.39C258.71 407.71 263.96 408.03 322.11 407.39C326.32 407.34 347.4 407.1 385.33 406.67L404.93 347.15C417.72 307.27 423.94 287.21 423.6 286.96ZM438.16 297.84C435.95 296.48 429.79 311.79 417.49 349.23C407.87 378.53 400 403.76 400 405.28C400 407.09 431.39 408 493.33 408C544.67 408 586.67 407.47 586.67 406.83C586.67 405.81 446.77 303.17 438.16 297.84ZM202.31 283.81C202.85 283.33 200.1 272.99 196.2 260.8C192.3 248.63 179.06 207.47 166.77 169.33C154.49 131.2 143.66 97.3 142.71 94C140.41 86.02 138.01 86.41 126.28 96.67C73.14 143.14 36.03 210.89 26.85 278.19C20.16 327.25 27.76 405.89 38.78 401.65C40.74 400.91 78.12 374.29 121.84 342.48C165.57 310.69 201.78 284.29 202.31 283.81ZM615.81 278.19C606.64 210.89 569.55 143.14 516.4 96.67C504.67 86.41 502.27 86.02 499.97 94C499.01 97.3 488.19 131.2 475.89 169.33C463.6 207.47 450.37 248.63 446.48 260.8C442.56 272.99 439.81 283.33 440.35 283.81C446.05 288.96 604.16 402.67 605.63 402.67C606.69 402.67 608.83 398.77 610.32 394C618.27 368.93 620.83 314.93 615.81 278.19ZM307.5 204.01C305.61 199.73 159.91 95.21 158.2 96.92C157.35 97.77 164.16 121.61 173.34 149.9C201.46 236.65 210.76 265.18 212.07 268.85C212.76 270.8 214.94 272 216.91 271.52C218.89 271.07 240.34 256.27 264.59 238.68C288.84 221.08 308.14 205.48 307.5 204.01ZM484.49 96.92C482.78 95.21 337.05 199.74 335.21 204C333.74 207.34 421.32 271.87 426.38 271.17C428.62 270.88 434.52 257 441.37 236C479.88 117.67 485.88 98.31 484.49 96.92ZM422.68 123.96C430.01 118.61 447.72 105.77 462.01 95.42C476.3 85.08 488.01 75.65 488.01 74.47C488.01 69.9 421.53 39.93 396.01 32.99C371.61 26.37 365.24 25.75 321.34 25.75C277.45 25.75 271.08 26.37 246.68 32.99C221.16 39.93 154.68 69.9 154.68 74.47C154.68 75.65 166.38 85.08 180.68 95.42C194.98 105.77 212.68 118.61 220.01 123.96C266.92 158.18 320.97 197.33 321.34 197.33C321.58 197.33 341.48 183.01 365.56 165.51C389.64 148.01 415.34 129.31 422.68 123.96Z" id="cle4DYPyd"></path></defs><g><g><g><use xlink:href="#cle4DYPyd" opacity="1" fill="#b40e0e" fill-opacity="1"></use><g><use xlink:href="#cle4DYPyd" opacity="1" fill-opacity="0" stroke="#b40e0e" stroke-width="10" stroke-opacity="1"></use></g></g></g></g></svg>