<?xml version="1.0" encoding="UTF-8" standalone="no"?>
<!DOCTYPE svg PUBLIC "-//W3C//DTD SVG 1.1//EN" "http://www.w3.org/Graphics/SVG/1.1/DTD/svg11.dtd">
<svg version="1.1" xmlns="http://www.w3.org/2000/svg" xmlns:xlink="http://www.w3.org/1999/xlink" preserveAspectRatio="xMidYMid meet" viewBox="0 0 640 640" width="640" height="640"><defs><path d="M211.23 449.8C178.19 424.29 155.65 384.7 149.93 342.19C147.4 323.43 147.4 316.69 149.93 297.93C159.86 224.1 218.41 165.45 291.76 155.83C311.88 153.2 316.51 153.2 336.63 155.83C366.57 159.76 391.36 170.37 417.16 190.31C442.57 209.94 461.39 237.09 472.01 269.43C476.5 283.07 480.48 306.92 480.48 320.06C480.48 323.98 479.58 333.94 478.47 342.19C468.53 416.01 409.99 474.66 336.63 484.29C317.55 486.79 309.06 486.77 290.18 484.2C261.77 480.32 236.46 469.29 211.23 449.8ZM304.84 464.93C302.44 457.5 294.98 434.4 288.25 413.58C281.54 392.76 275.59 375.26 275.04 374.66C274.49 374.06 249.17 373.73 218.78 373.94C215.1 373.97 196.68 374.09 163.52 374.32C168.21 383.74 170.81 388.97 171.33 390.02C182.85 413.19 195.65 428.96 216.81 446.05C235.27 460.94 265.84 474.15 290.14 477.69C298.73 478.95 309.2 479.57 309.2 478.85C309.2 478.62 307.24 472.35 304.84 464.93ZM411.57 446.05C432.75 428.96 445.54 413.19 457.06 390.02C457.59 388.97 460.19 383.74 464.87 374.32C431.72 374.09 413.3 373.97 409.62 373.94C379.22 373.73 353.9 374.06 353.35 374.66C352.8 375.26 346.85 392.76 340.14 413.58C333.41 434.4 325.95 457.5 323.55 464.93C321.15 472.35 319.19 478.69 319.19 479.02C319.19 480.47 342.65 477.2 354.89 474.03C373.34 469.27 397.75 457.21 411.57 446.05ZM340.05 392.89C342.72 385.05 344.89 377.51 344.89 376.11C344.89 373.79 342.58 373.6 314.2 373.6C286.95 373.6 283.5 373.86 283.5 375.9C283.5 377.16 287.42 390.16 292.22 404.81C297.02 419.45 303.47 439.14 306.54 448.56C309.63 457.99 312.47 466.61 312.87 467.72C314.17 471.44 315.85 467.38 325.58 437.14C330.89 420.65 337.4 400.74 340.05 392.89ZM262.7 334.99C256.12 314.95 252.83 306.75 251.64 307.48C247.02 310.33 172.13 365.29 172.13 365.83C172.13 366.18 194.62 366.46 222.1 366.46C255.28 366.46 272.07 365.98 272.07 365.01C272.07 364.19 267.86 350.68 262.7 334.99ZM368.95 301.65C335.13 276.92 315.57 263.18 314.2 263.18C313.23 263.18 300.63 271.76 286.2 282.24C271.75 292.71 259.72 301.44 259.46 301.64C258.87 302.05 277.59 360.47 279.44 363.99C280.66 366.3 283.48 366.48 314.61 366.13C316.87 366.11 328.15 365.98 348.46 365.75L358.96 333.88C365.8 312.53 369.13 301.79 368.95 301.65ZM376.75 307.48C375.56 306.75 372.27 314.95 365.68 334.99C360.53 350.68 356.32 364.19 356.32 365.01C356.32 365.98 373.12 366.46 406.29 366.46C433.78 366.46 456.27 366.18 456.27 365.83C456.27 365.29 381.36 310.33 376.75 307.48ZM250.47 299.97C250.76 299.71 249.28 294.17 247.2 287.65C245.11 281.13 238.02 259.09 231.44 238.67C224.86 218.25 219.06 200.1 218.55 198.34C217.32 194.06 216.04 194.27 209.76 199.76C181.3 224.65 161.43 260.92 156.52 296.96C152.94 323.23 157 365.33 162.9 363.06C163.96 362.66 183.97 348.41 207.38 331.38C230.79 314.36 250.18 300.22 250.47 299.97ZM471.87 296.96C466.96 260.92 447.1 224.65 418.64 199.76C412.36 194.27 411.07 194.06 409.85 198.34C409.33 200.1 403.54 218.25 396.95 238.67C390.37 259.09 383.29 281.13 381.2 287.65C379.11 294.17 377.63 299.71 377.92 299.97C380.98 302.72 465.63 363.61 466.42 363.61C466.99 363.61 468.13 361.52 468.93 358.97C473.18 345.54 474.56 316.63 471.87 296.96ZM306.79 257.24C305.78 254.95 227.76 198.98 226.85 199.9C226.39 200.35 230.04 213.12 234.95 228.27C250.01 274.71 254.99 289.99 255.69 291.96C256.06 293 257.23 293.64 258.29 293.39C259.34 293.14 270.83 285.22 283.81 275.8C296.8 266.38 307.13 258.03 306.79 257.24ZM401.56 199.9C400.64 198.98 322.61 254.95 321.63 257.23C320.84 259.02 367.73 293.57 370.44 293.2C371.64 293.04 374.8 285.61 378.47 274.37C399.09 211.01 402.3 200.64 401.56 199.9ZM368.46 214.38C372.39 211.51 381.87 204.63 389.52 199.1C397.17 193.56 403.44 188.51 403.44 187.88C403.44 185.43 367.85 169.38 354.18 165.67C341.12 162.12 337.7 161.79 314.2 161.79C290.7 161.79 287.29 162.12 274.22 165.67C260.56 169.38 224.96 185.43 224.96 187.88C224.96 188.51 231.23 193.56 238.88 199.1C246.54 204.63 256.02 211.51 259.94 214.38C285.06 232.7 314 253.66 314.2 253.66C314.33 253.66 324.98 246 337.88 236.62C350.77 227.25 364.53 217.24 368.46 214.38Z" id="fXk7Y5c2"></path><path d="M500.44 55.81C511.48 55.81 520.44 64.77 520.44 75.81C520.44 177.49 520.44 462.51 520.44 564.19C520.44 575.23 511.48 584.19 500.44 584.19C421.97 584.19 206.55 584.19 128.07 584.19C117.03 584.19 108.07 575.23 108.07 564.19C108.07 462.51 108.07 177.49 108.07 75.81C108.07 64.77 117.03 55.81 128.07 55.81C206.55 55.81 421.97 55.81 500.44 55.81Z" id="a2HxxRcLK9"></path><path d="M238.45 55.81L108.07 185.96" id="e38TR44p"></path><path d="M390.07 55.81L520.44 185.96" id="h4HX6FaIfG"></path><path d="M390.07 584.19L520.44 454.04" id="fIH7uSJdK"></path><path d="M238.45 584.19L108.07 454.04" id="c3niHoAqml"></path></defs><g><g><g><use xlink:href="#fXk7Y5c2" opacity="1" fill="#000000" fill-opacity="1"></use><g><use xlink:href="#fXk7Y5c2" opacity="1" fill-opacity="0" stroke="#000000" stroke-width="8" stroke-opacity="1"></use></g></g><g><g><use xlink:href="#a2HxxRcLK9" opacity="1" fill-opacity="0" stroke="#000000" stroke-width="12" stroke-opacity="1"></use></g></g><g><g><use xlink:href="#e38TR44p" opacity="1" fill-opacity="0" stroke="#2f0909" stroke-width="12" stroke-opacity="1"></use></g></g><g><g><use xlink:href="#h4HX6FaIfG" opacity="1" fill-opacity="0" stroke="#2f0909" stroke-width="12" stroke-opacity="1"></use></g></g><g><g><use xlink:href="#fIH7uSJdK" opacity="1" fill-opacity="0" stroke="#2f0909" stroke-width="12" stroke-opacity="1"></use></g></g><g><g><use xlink:href="#c3niHoAqml" opacity="1" fill-opacity="0" stroke="#2f0909" stroke-width="12" stroke-opacity="1"></use></g></g></g></g></svg>